<svg width="633" height="30" xmlns="http://www.w3.org/2000/svg">

 <g>
  <title>background</title>
  <rect fill="none" id="canvas_background" height="602" width="802" y="-1" x="-1"/>
 </g>
 <g>
  <title>Layer 1</title>
  <path id="svg_1" d="m621.116,15.965l-7.653,8.064l-12.922,0l-15.967,-17.003l-0.023,0.023l-0.019,-0.023l-9.17,9.015l-142.603,0l0.027,0.027l-6.657,0l0.027,-0.027l3.603,0l-3.298,-3.537l5.508,-5.478l-11.004,0l5.496,5.478l-3.305,3.537l-81.714,0l-4.693,4.443l-9.247,9.47l-6.165,-5.979l-36.256,0.054l-12.659,-13.033l-33.632,0l-7.238,7.047l-74.262,-0.038l-5.77,-5.497l-8.649,8.291l-2.891,-2.794l-139.98,0.032l0,-18.037l633,0l0,15.965l-11.884,0zm-69.74,-3.76l1.735,0l0,-5.179l-1.735,0l0,5.179zm-2.624,0l1.73,0l0,-5.179l-1.73,0l0,5.179zm-12.122,0l1.73,0l0,-5.179l-1.73,0l0,5.179zm-20.799,0l5.196,0l0,-5.179l-5.196,0l0,5.179zm-207.507,6.509l1.735,0l0,-1.725l-1.735,0l0,1.725zm-6.641,0l1.735,0l0,-5.178l-1.735,0l0,5.178zm-13.434,0l1.734,0l0,-1.725l-1.734,0l0,1.725zm0,-3.454l1.734,0l0,-1.724l-1.734,0l0,1.724z" fill="#000000" fill-rule="evenodd"/>
 </g>
</svg>